<svg width="32" height="32" viewBox="0 0 32 32" fill="none" xmlns="http://www.w3.org/2000/svg">
<path d="M16 3C13.4288 3 10.9154 3.76244 8.77759 5.1909C6.63975 6.61935 4.97351 8.64968 3.98957 11.0251C3.00563 13.4006 2.74819 16.0144 3.2498 18.5362C3.75141 21.0579 4.98953 23.3743 6.80762 25.1924C8.6257 27.0105 10.9421 28.2486 13.4638 28.7502C15.9856 29.2518 18.5995 28.9944 20.9749 28.0104C23.3503 27.0265 25.3807 25.3603 26.8091 23.2224C28.2376 21.0846 29 18.5712 29 16C28.9934 12.5542 27.6216 9.25145 25.1851 6.81491C22.7486 4.37837 19.4458 3.00661 16 3Z" fill="#FF9D46"/>
<path d="M12.178 18.126C11.806 18.126 11.494 18 11.242 17.748C10.99 17.496 10.864 17.184 10.864 16.812C10.864 16.44 10.99 16.128 11.242 15.876C11.494 15.624 11.806 15.498 12.178 15.498C12.538 15.498 12.844 15.624 13.096 15.876C13.348 16.128 13.474 16.44 13.474 16.812C13.474 17.184 13.348 17.496 13.096 17.748C12.844 18 12.538 18.126 12.178 18.126ZM16.5198 18.126C16.1478 18.126 15.8358 18 15.5838 17.748C15.3318 17.496 15.2058 17.184 15.2058 16.812C15.2058 16.44 15.3318 16.128 15.5838 15.876C15.8358 15.624 16.1478 15.498 16.5198 15.498C16.8798 15.498 17.1858 15.624 17.4378 15.876C17.6898 16.128 17.8158 16.44 17.8158 16.812C17.8158 17.184 17.6898 17.496 17.4378 17.748C17.1858 18 16.8798 18.126 16.5198 18.126ZM20.8616 18.126C20.4896 18.126 20.1776 18 19.9256 17.748C19.6736 17.496 19.5476 17.184 19.5476 16.812C19.5476 16.44 19.6736 16.128 19.9256 15.876C20.1776 15.624 20.4896 15.498 20.8616 15.498C21.2216 15.498 21.5276 15.624 21.7796 15.876C22.0316 16.128 22.1576 16.44 22.1576 16.812C22.1576 17.184 22.0316 17.496 21.7796 17.748C21.5276 18 21.2216 18.126 20.8616 18.126Z" fill="white"/>
</svg>
