<svg width="20" height="20" viewBox="0 0 20 20" fill="none" xmlns="http://www.w3.org/2000/svg">
<path d="M17.1009 5.54683C17.5109 6.50409 17.6112 7.56559 17.3879 8.58272C17.1646 9.59985 16.6288 10.5217 15.8556 11.2192C15.0823 11.9167 14.1103 12.3549 13.0756 12.4725C12.0409 12.5901 10.9953 12.3811 10.0853 11.875L5.70247 16.9531C5.35023 17.3053 4.87249 17.5032 4.37435 17.5032C3.8762 17.5032 3.39846 17.3053 3.04622 16.9531C2.69398 16.6008 2.49609 16.1231 2.49609 15.625C2.49609 15.1268 2.69398 14.6491 3.04622 14.2968L8.12435 9.91402C7.61817 9.00396 7.40925 7.9584 7.52684 6.9237C7.64443 5.88901 8.08265 4.91699 8.78013 4.14373C9.47762 3.37047 10.3995 2.83468 11.4166 2.61137C12.4337 2.38807 13.4952 2.48842 14.4525 2.89839L11.1712 6.17183L11.6165 8.38277L13.8275 8.82808L17.1009 5.54683Z" stroke="#333333" stroke-width="2" stroke-linecap="round" stroke-linejoin="round"/>
</svg>
