<svg width="26" height="20" viewBox="0 0 26 20" fill="none" xmlns="http://www.w3.org/2000/svg">
<path d="M23 0H3C2.20536 0.00329046 1.44421 0.320418 0.882315 0.882315C0.320417 1.44421 0.00329046 2.20536 0 3V17C0.00329046 17.7946 0.320417 18.5558 0.882315 19.1177C1.44421 19.6796 2.20536 19.9967 3 20H23C23.7946 19.9967 24.5558 19.6796 25.1177 19.1177C25.6796 18.5558 25.9967 17.7946 26 17V3C25.9967 2.20536 25.6796 1.44421 25.1177 0.882315C24.5558 0.320418 23.7946 0.00329046 23 0ZM15.9375 9.6C15.7974 10.2755 15.4288 10.8821 14.8937 11.3176C14.3587 11.7531 13.6899 11.9908 13 11.9908C12.3101 11.9908 11.6413 11.7531 11.1063 11.3176C10.5712 10.8821 10.2026 10.2755 10.0625 9.6C9.96804 9.14891 9.72161 8.74391 9.36441 8.45269C9.00721 8.16146 8.56087 8.00167 8.1 8H2V6H24V8H17.9C17.4391 8.00167 16.9928 8.16146 16.6356 8.45269C16.2784 8.74391 16.032 9.14891 15.9375 9.6ZM3 2H23C23.2652 2 23.5196 2.10536 23.7071 2.29289C23.8946 2.48043 24 2.73478 24 3V4H2V3C2 2.73478 2.10536 2.48043 2.29289 2.29289C2.48043 2.10536 2.73478 2 3 2Z" fill="#333333"/>
</svg>
