<svg width="32" height="32" viewBox="0 0 32 32" fill="none" xmlns="http://www.w3.org/2000/svg">
<path d="M11 9.41243C10.629 9.03591 10.421 8.52853 10.421 7.99993C10.421 7.47133 10.629 6.96396 11 6.58743L14.5875 2.99993C14.7723 2.81323 14.9923 2.66502 15.2347 2.56387C15.4772 2.46272 15.7373 2.41064 16 2.41064C16.2627 2.41064 16.5228 2.46272 16.7652 2.56387C17.0077 2.66502 17.2277 2.81323 17.4125 2.99993L21 6.58743C21.371 6.96396 21.579 7.47133 21.579 7.99993C21.579 8.52853 21.371 9.03591 21 9.41243L17.4125 12.9999C17.2277 13.1866 17.0077 13.3348 16.7652 13.436C16.5228 13.5371 16.2627 13.5892 16 13.5892C15.7373 13.5892 15.4772 13.5371 15.2347 13.436C14.9923 13.3348 14.7723 13.1866 14.5875 12.9999L11 9.41243ZM29 14.5874L25.4125 10.9999C25.2277 10.8132 25.0077 10.665 24.7652 10.5639C24.5228 10.4627 24.2627 10.4106 24 10.4106C23.7373 10.4106 23.4772 10.4627 23.2347 10.5639C22.9923 10.665 22.7723 10.8132 22.5875 10.9999L19 14.5874C18.629 14.964 18.421 15.4713 18.421 15.9999C18.421 16.5285 18.629 17.0359 19 17.4124L22.5875 20.9999C22.7723 21.1866 22.9923 21.3348 23.2347 21.436C23.4772 21.5371 23.7373 21.5892 24 21.5892C24.2627 21.5892 24.5228 21.5371 24.7652 21.436C25.0077 21.3348 25.2277 21.1866 25.4125 20.9999L29 17.4124C29.371 17.0359 29.579 16.5285 29.579 15.9999C29.579 15.4713 29.371 14.964 29 14.5874ZM13 14.5874L9.41249 10.9999C9.22768 10.8132 9.00769 10.665 8.76524 10.5639C8.52279 10.4627 8.2627 10.4106 7.99999 10.4106C7.73729 10.4106 7.4772 10.4627 7.23475 10.5639C6.9923 10.665 6.77231 10.8132 6.58749 10.9999L2.99999 14.5874C2.62899 14.964 2.42102 15.4713 2.42102 15.9999C2.42102 16.5285 2.62899 17.0359 2.99999 17.4124L6.58749 20.9999C6.77231 21.1866 6.9923 21.3348 7.23475 21.436C7.4772 21.5371 7.73729 21.5892 7.99999 21.5892C8.2627 21.5892 8.52279 21.5371 8.76524 21.436C9.00769 21.3348 9.22768 21.1866 9.41249 20.9999L13 17.4124C13.371 17.0359 13.579 16.5285 13.579 15.9999C13.579 15.4713 13.371 14.964 13 14.5874ZM17.4125 18.9999C17.2277 18.8132 17.0077 18.665 16.7652 18.5639C16.5228 18.4627 16.2627 18.4106 16 18.4106C15.7373 18.4106 15.4772 18.4627 15.2347 18.5639C14.9923 18.665 14.7723 18.8132 14.5875 18.9999L11 22.5874C10.629 22.964 10.421 23.4713 10.421 23.9999C10.421 24.5285 10.629 25.0359 11 25.4124L14.5875 28.9999C14.7723 29.1866 14.9923 29.3348 15.2347 29.436C15.4772 29.5371 15.7373 29.5892 16 29.5892C16.2627 29.5892 16.5228 29.5371 16.7652 29.436C17.0077 29.3348 17.2277 29.1866 17.4125 28.9999L21 25.4124C21.371 25.0359 21.579 24.5285 21.579 23.9999C21.579 23.4713 21.371 22.964 21 22.5874L17.4125 18.9999Z" fill="#333333"/>
</svg>
