<svg width="32" height="32" viewBox="0 0 32 32" fill="none" xmlns="http://www.w3.org/2000/svg">
<path d="M15.2779 3.71456L11.9456 7.0468C11.5551 7.43732 11.5551 8.07049 11.9456 8.46101L15.2814 11.7968C15.6719 12.1873 16.3051 12.1873 16.6956 11.7968L20.0279 8.46455C20.4184 8.07402 20.4184 7.44086 20.0279 7.05033L16.6921 3.71456C16.3016 3.32403 15.6684 3.32403 15.2779 3.71456Z" stroke="black" stroke-width="2" stroke-linecap="round" stroke-linejoin="round"/>
<path d="M23.5325 11.9646L20.2003 15.2968C19.8097 15.6873 19.8097 16.3205 20.2003 16.711L23.536 20.0468C23.9266 20.4373 24.5597 20.4373 24.9503 20.0468L28.2825 16.7145C28.673 16.324 28.673 15.6909 28.2825 15.3003L24.9467 11.9646C24.5562 11.574 23.923 11.574 23.5325 11.9646Z" stroke="black" stroke-width="2" stroke-linecap="round" stroke-linejoin="round"/>
<path d="M7.02787 11.9567L3.69563 15.289C3.30511 15.6795 3.30511 16.3127 3.69563 16.7032L7.03141 20.039C7.42193 20.4295 8.0551 20.4295 8.44562 20.039L11.7779 16.7067C12.1684 16.3162 12.1684 15.683 11.7779 15.2925L8.44209 11.9567C8.05156 11.5662 7.4184 11.5662 7.02787 11.9567Z" stroke="black" stroke-width="2" stroke-linecap="round" stroke-linejoin="round"/>
<path d="M15.2825 20.2067L11.9503 23.539C11.5597 23.9295 11.5597 24.5627 11.9503 24.9532L15.286 28.289C15.6766 28.6795 16.3097 28.6795 16.7003 28.289L20.0325 24.9567C20.423 24.5662 20.423 23.933 20.0325 23.5425L16.6967 20.2067C16.3062 19.8162 15.673 19.8162 15.2825 20.2067Z" stroke="black" stroke-width="2" stroke-linecap="round" stroke-linejoin="round"/>
</svg>
