<svg width="32" height="32" viewBox="0 0 32 32" fill="none" xmlns="http://www.w3.org/2000/svg">
<path d="M15.15 19.7374C16.4917 18.8462 17.5108 17.5466 18.0565 16.0311C18.6022 14.5157 18.6455 12.8648 18.18 11.3227C17.7145 9.78074 16.7649 8.42957 15.4718 7.46918C14.1787 6.5088 12.6108 5.99023 11 5.99023C9.38928 5.99023 7.82133 6.5088 6.52822 7.46918C5.23511 8.42957 4.28554 9.78074 3.82004 11.3227C3.35454 12.8648 3.39784 14.5157 3.94354 16.0311C4.48924 17.5466 5.50833 18.8462 6.85001 19.7374C4.56123 20.5791 2.58511 22.1015 1.18751 24.0999C1.07835 24.2482 1.01337 24.4242 1.0001 24.6078C0.986824 24.7914 1.0258 24.9751 1.11251 25.1374C1.1982 25.2987 1.32594 25.4339 1.48218 25.5285C1.63842 25.6231 1.81735 25.6737 2.00001 25.6749H20C20.1827 25.6737 20.3616 25.6231 20.5178 25.5285C20.6741 25.4339 20.8018 25.2987 20.8875 25.1374C20.9742 24.9751 21.0132 24.7914 20.9999 24.6078C20.9867 24.4242 20.9217 24.2482 20.8125 24.0999C19.4149 22.1015 17.4388 20.5791 15.15 19.7374Z" fill="#333333"/>
<path d="M31.0125 24.1C29.6069 22.1041 27.6277 20.5826 25.3375 19.7375C26.6834 18.8497 27.7068 17.551 28.2553 16.0348C28.8039 14.5185 28.8483 12.8657 28.382 11.3222C27.9157 9.77871 26.9636 8.42695 25.6674 7.46802C24.3711 6.5091 22.7999 5.99425 21.1875 6.00005C20.4993 6.0037 19.8145 6.09613 19.15 6.27505C18.9939 6.32193 18.8512 6.40535 18.7339 6.5184C18.6165 6.63144 18.5277 6.77085 18.475 6.92505C18.4247 7.07799 18.4121 7.24081 18.4382 7.39968C18.4643 7.55855 18.5284 7.70876 18.625 7.83755C19.7555 9.35651 20.405 11.1794 20.4896 13.071C20.5743 14.9626 20.0903 16.8362 19.1 18.45C18.973 18.6645 18.9296 18.9182 18.978 19.1627C19.0264 19.4072 19.1633 19.6252 19.3625 19.775C19.7375 20.0667 20.1 20.3667 20.45 20.675L20.5125 20.7375C21.8467 21.9722 22.9292 23.4537 23.7 25.1C23.7791 25.2721 23.906 25.4178 24.0655 25.5197C24.2251 25.6217 24.4106 25.6756 24.6 25.675H30.1875C30.3701 25.6738 30.5491 25.6232 30.7053 25.5286C30.8616 25.434 30.9893 25.2989 31.075 25.1375C31.1607 24.9755 31.2001 24.793 31.1891 24.61C31.1781 24.4271 31.117 24.2506 31.0125 24.1Z" fill="#333333"/>
</svg>
