<svg width="17" height="17" viewBox="0 0 17 17" fill="none" xmlns="http://www.w3.org/2000/svg">
<path d="M5.24219 15.8749H1.75C1.58424 15.8749 1.42527 15.8091 1.30806 15.6919C1.19085 15.5747 1.125 15.4157 1.125 15.2499V11.7577C1.12472 11.6766 1.14044 11.5962 1.17128 11.5211C1.20211 11.446 1.24745 11.3778 1.30469 11.3202L10.6797 1.94524C10.7378 1.88619 10.8072 1.83929 10.8836 1.80728C10.9601 1.77527 11.0421 1.75879 11.125 1.75879C11.2079 1.75879 11.2899 1.77527 11.3664 1.80728C11.4428 1.83929 11.5122 1.88619 11.5703 1.94524L15.0547 5.42962C15.1137 5.48777 15.1606 5.5571 15.1927 5.63355C15.2247 5.71 15.2411 5.79205 15.2411 5.87493C15.2411 5.95781 15.2247 6.03987 15.1927 6.11632C15.1606 6.19277 15.1137 6.26209 15.0547 6.32024L5.67969 15.6952C5.62216 15.7525 5.55391 15.7978 5.47884 15.8287C5.40376 15.8595 5.32335 15.8752 5.24219 15.8749V15.8749Z" stroke="#333333" stroke-width="2" stroke-linecap="round" stroke-linejoin="round"/>
</svg>
