<svg width="32" height="32" viewBox="0 0 32 32" fill="none" xmlns="http://www.w3.org/2000/svg">
<path d="M6.00003 26C5.99837 25.6056 6.07484 25.2147 6.22502 24.85C6.3752 24.4853 6.59611 24.1539 6.87502 23.875C7.15392 23.5961 7.4853 23.3752 7.85002 23.225C8.21475 23.0748 8.6056 22.9984 9.00003 23H26V4.00003H9.00003C8.6056 3.99837 8.21475 4.07484 7.85002 4.22502C7.4853 4.3752 7.15392 4.59611 6.87502 4.87502C6.59611 5.15392 6.3752 5.4853 6.22502 5.85002C6.07484 6.21475 5.99837 6.6056 6.00003 7.00003V26Z" stroke="#333333" stroke-width="2" stroke-linecap="round" stroke-linejoin="round"/>
<path d="M6 26V28H24" stroke="#333333" stroke-width="2" stroke-linecap="round" stroke-linejoin="round"/>
</svg>
