<svg width="23" height="26" viewBox="0 0 23 26" fill="none" xmlns="http://www.w3.org/2000/svg">
<path d="M21.0375 11.2877L3.03751 0.300204C2.73768 0.110201 2.39141 0.00621703 2.03651 -0.000396057C1.68161 -0.00700915 1.33171 0.0840025 1.02501 0.262704C0.713773 0.433463 0.454317 0.684953 0.27394 0.990715C0.0935623 1.29648 -0.00106682 1.6452 9.07295e-06 2.0002V24.0002C-0.00106682 24.3552 0.0935623 24.7039 0.27394 25.0097C0.454317 25.3155 0.713773 25.5669 1.02501 25.7377C1.33171 25.9164 1.68161 26.0074 2.03651 26.0008C2.39141 25.9942 2.73768 25.8902 3.03751 25.7002L21.0375 14.7127C21.3325 14.5347 21.5766 14.2835 21.746 13.9835C21.9154 13.6835 22.0044 13.3448 22.0044 13.0002C22.0044 12.6557 21.9154 12.3169 21.746 12.0169C21.5766 11.7169 21.3325 11.4657 21.0375 11.2877Z" fill="white" fill-opacity="0.75"/>
</svg>
