<svg width="27" height="26" viewBox="0 0 27 26" fill="none" xmlns="http://www.w3.org/2000/svg">
<path d="M13.5 0C10.9288 0 8.41543 0.762437 6.27759 2.1909C4.13975 3.61935 2.47351 5.64968 1.48957 8.02512C0.505633 10.4006 0.248189 13.0144 0.749797 15.5362C1.25141 18.0579 2.48953 20.3743 4.30762 22.1924C6.1257 24.0105 8.44208 25.2486 10.9638 25.7502C13.4856 26.2518 16.0995 25.9944 18.4749 25.0104C20.8503 24.0265 22.8807 22.3603 24.3091 20.2224C25.7376 18.0846 26.5 15.5712 26.5 13C26.4934 9.55422 25.1216 6.25145 22.6851 3.81491C20.2486 1.37837 16.9458 0.00660747 13.5 0ZM18.5 14H14.5V18C14.5 18.2652 14.3946 18.5196 14.2071 18.7071C14.0196 18.8946 13.7652 19 13.5 19C13.2348 19 12.9804 18.8946 12.7929 18.7071C12.6054 18.5196 12.5 18.2652 12.5 18V14H8.50001C8.23479 14 7.98044 13.8946 7.7929 13.7071C7.60536 13.5196 7.50001 13.2652 7.50001 13C7.50001 12.7348 7.60536 12.4804 7.7929 12.2929C7.98044 12.1054 8.23479 12 8.50001 12H12.5V8C12.5 7.73478 12.6054 7.48043 12.7929 7.29289C12.9804 7.10536 13.2348 7 13.5 7C13.7652 7 14.0196 7.10536 14.2071 7.29289C14.3946 7.48043 14.5 7.73478 14.5 8V12H18.5C18.7652 12 19.0196 12.1054 19.2071 12.2929C19.3946 12.4804 19.5 12.7348 19.5 13C19.5 13.2652 19.3946 13.5196 19.2071 13.7071C19.0196 13.8946 18.7652 14 18.5 14Z" fill="#EDEEF3"/>
</svg>
