<svg width="32" height="32" viewBox="0 0 32 32" fill="none" xmlns="http://www.w3.org/2000/svg">
<path d="M29.6876 13.0376C29.6565 12.8978 29.5958 12.7663 29.5095 12.652C29.4233 12.5377 29.3135 12.4433 29.1876 12.3751L26.2126 10.7251C26.0542 10.4001 25.8792 10.0876 25.6876 9.7876L25.7376 6.3876C25.7387 6.24499 25.7104 6.10368 25.6545 5.97248C25.5986 5.84129 25.5162 5.72303 25.4126 5.6251C23.9313 4.28206 22.1795 3.2719 20.2751 2.6626C20.1383 2.61995 19.994 2.60682 19.8518 2.62406C19.7096 2.64129 19.5727 2.68852 19.4501 2.7626L16.5376 4.5126C16.1751 4.5001 15.8251 4.5001 15.4626 4.5126L12.5501 2.7626C12.4274 2.68852 12.2905 2.64129 12.1483 2.62406C12.0061 2.60682 11.8618 2.61995 11.7251 2.6626C9.81813 3.27236 8.0656 4.28721 6.58755 5.6376C6.48298 5.73216 6.39987 5.84803 6.34381 5.97739C6.28775 6.10676 6.26005 6.24663 6.26255 6.3876L6.32505 9.7876C6.12505 10.0876 5.95005 10.4001 5.77505 10.7251L2.81255 12.3751C2.68507 12.4412 2.57399 12.535 2.48747 12.6497C2.40096 12.7643 2.34119 12.8969 2.31255 13.0376C1.88751 14.9897 1.88751 17.0105 2.31255 18.9626C2.3436 19.1024 2.40431 19.2339 2.49057 19.3482C2.57684 19.4625 2.68664 19.5569 2.81255 19.6251L5.78755 21.2751C5.94704 21.5985 6.12655 21.9116 6.32505 22.2126L6.26255 25.6126C6.26141 25.7552 6.28968 25.8965 6.3456 26.0277C6.40152 26.1589 6.48388 26.2772 6.58755 26.3751C8.0709 27.7153 9.82206 28.7251 11.7251 29.3376C11.8618 29.3802 12.0061 29.3934 12.1483 29.3761C12.2905 29.3589 12.4274 29.3117 12.5501 29.2376L15.4626 27.4876H16.5376L19.4626 29.2376C19.6146 29.3376 19.7931 29.3898 19.9751 29.3876C20.0767 29.3832 20.1775 29.3664 20.2751 29.3376C22.182 28.7278 23.9345 27.713 25.4126 26.3626C25.5171 26.268 25.6002 26.1522 25.6563 26.0228C25.7124 25.8934 25.7401 25.7536 25.7376 25.6126L25.6876 22.2126C25.8751 21.9126 26.0501 21.6001 26.2251 21.2751L29.2001 19.6251C29.3242 19.5562 29.4319 19.4613 29.5161 19.347C29.6002 19.2327 29.6587 19.1016 29.6876 18.9626C30.1126 17.0105 30.1126 14.9897 29.6876 13.0376ZM21.5001 16.0001C21.5001 17.0879 21.1775 18.1513 20.5731 19.0557C19.9688 19.9602 19.1098 20.6652 18.1048 21.0814C17.0998 21.4977 15.994 21.6066 14.9271 21.3944C13.8602 21.1822 12.8802 20.6584 12.111 19.8892C11.3418 19.12 10.818 18.14 10.6057 17.0731C10.3935 16.0062 10.5024 14.9003 10.9187 13.8953C11.335 12.8903 12.0399 12.0314 12.9444 11.427C13.8489 10.8227 14.9123 10.5001 16.0001 10.5001C17.4587 10.5001 18.8577 11.0796 19.8891 12.111C20.9206 13.1425 21.5001 14.5414 21.5001 16.0001Z" fill="#333333"/>
</svg>
