<svg width="18" height="4" viewBox="0 0 18 4" fill="none" xmlns="http://www.w3.org/2000/svg">
<path d="M2.4 3.6501C3.31127 3.6501 4.05 2.91137 4.05 2.0001C4.05 1.08883 3.31127 0.350098 2.4 0.350098C1.48873 0.350098 0.75 1.08883 0.75 2.0001C0.75 2.91137 1.48873 3.6501 2.4 3.6501Z" fill="#828282"/>
<path d="M9.0001 3.6501C9.91137 3.6501 10.6501 2.91137 10.6501 2.0001C10.6501 1.08883 9.91137 0.350098 9.0001 0.350098C8.08883 0.350098 7.3501 1.08883 7.3501 2.0001C7.3501 2.91137 8.08883 3.6501 9.0001 3.6501Z" fill="#828282"/>
<path d="M15.6002 3.6501C16.5115 3.6501 17.2502 2.91137 17.2502 2.0001C17.2502 1.08883 16.5115 0.350098 15.6002 0.350098C14.6889 0.350098 13.9502 1.08883 13.9502 2.0001C13.9502 2.91137 14.6889 3.6501 15.6002 3.6501Z" fill="#828282"/>
</svg>
