<svg width="34" height="34" viewBox="0 0 34 34" fill="none" xmlns="http://www.w3.org/2000/svg">
<path d="M17 0.75C13.7861 0.75 10.6443 1.70305 7.97199 3.48862C5.29969 5.27419 3.21689 7.81209 1.98696 10.7814C0.757041 13.7507 0.435237 17.018 1.06225 20.1702C1.68926 23.3224 3.23692 26.2179 5.50952 28.4905C7.78213 30.7631 10.6776 32.3107 13.8298 32.9378C16.982 33.5648 20.2493 33.243 23.2186 32.013C26.1879 30.7831 28.7258 28.7003 30.5114 26.028C32.297 23.3557 33.25 20.2139 33.25 17C33.2417 12.6928 31.527 8.56432 28.4814 5.51864C25.4357 2.47296 21.3072 0.758259 17 0.75V0.75ZM22.8906 21.1094C23.1254 21.3464 23.257 21.6664 23.257 22C23.257 22.3336 23.1254 22.6536 22.8906 22.8906C22.6517 23.1217 22.3324 23.2508 22 23.2508C21.6677 23.2508 21.3483 23.1217 21.1094 22.8906L17 18.7656L12.8906 22.8906C12.6517 23.1217 12.3324 23.2508 12 23.2508C11.6677 23.2508 11.3483 23.1217 11.1094 22.8906C10.8747 22.6536 10.743 22.3336 10.743 22C10.743 21.6664 10.8747 21.3464 11.1094 21.1094L15.2344 17L11.1094 12.8906C10.9101 12.6478 10.8082 12.3394 10.8236 12.0256C10.839 11.7118 10.9706 11.4149 11.1928 11.1928C11.4149 10.9706 11.7118 10.839 12.0256 10.8236C12.3394 10.8082 12.6478 10.91 12.8906 11.1094L17 15.2344L21.1094 11.1094C21.3523 10.91 21.6606 10.8082 21.9744 10.8236C22.2882 10.839 22.5851 10.9706 22.8072 11.1928C23.0294 11.4149 23.161 11.7118 23.1764 12.0256C23.1918 12.3394 23.09 12.6478 22.8906 12.8906L18.7656 17L22.8906 21.1094Z" fill="#DFE1E9"/>
</svg>
